<?xml version="1.0" encoding="iso-8859-1"?>
<!-- Uploaded to: SVG Repo, www.svgrepo.com, Generator: SVG Repo Mixer Tools -->
<!DOCTYPE svg PUBLIC "-//W3C//DTD SVG 1.1//EN" "http://www.w3.org/Graphics/SVG/1.1/DTD/svg11.dtd">
<svg fill="#000000" version="1.1" id="Capa_1" xmlns="http://www.w3.org/2000/svg" xmlns:xlink="http://www.w3.org/1999/xlink" 
	 width="800px" height="800px" viewBox="0 0 98.901 98.901"
	 xml:space="preserve">
<g>
	<g>
		<path d="M87.879,62.468C85.969,35.193,44.875,0,44.875,0S9.072,40.573,10.981,67.84c1.752,25.051,21.581,31.088,36.858,31.061
			c0.252-3.662,0.404-10.363,0.404-10.363c-1.665-0.465-3.354-1.067-4.745-1.766c-1.357-0.698-2.644-1.513-3.848-2.412
			c-2.411-1.797-4.451-4.021-5.932-6.485c2.067,2.002,4.481,3.519,7.042,4.545c1.271,0.51,2.585,0.917,3.9,1.208
			c1.293,0.284,2.71,0.486,3.869,0.489c0,0,0.331-8.21,0.331-14.305c-1.539-0.458-2.807-1.026-4.114-1.69
			c-1.364-0.695-2.651-1.506-3.855-2.406c-2.411-1.8-4.451-4.021-5.933-6.491c2.067,2.012,4.488,3.524,7.043,4.552
			c1.28,0.513,2.585,0.924,3.899,1.207c0.965,0.209,1.992,0.373,2.932,0.449c-0.063-4.758-0.215-9.668-0.468-14.688l-0.137,0.924
			c-1.155-0.383-1.983-0.842-2.887-1.368c-0.876-0.518-1.682-1.109-2.437-1.754c-1.506-1.285-2.736-2.83-3.574-4.485
			c1.43,1.194,3.032,2.036,4.683,2.551c0.827,0.255,1.663,0.442,2.491,0.549c0.546,0.07,1.134,0.12,1.656,0.12
			c-0.055-0.897-0.108-1.799-0.171-2.702c-1.198-17.177-0.171-11.175,1.545,2.688c0.588,0.027,1.307-0.022,1.959-0.11
			c0.835-0.108,1.673-0.294,2.498-0.546c1.652-0.511,3.262-1.35,4.682-2.544c-0.832,1.655-2.067,3.196-3.573,4.481
			c-0.753,0.646-1.567,1.233-2.437,1.751c-0.819,0.479-1.602,0.89-2.599,1.252c0.415,3.498,0.867,7.323,1.327,11.3
			c1.098-0.027,2.391-0.219,3.578-0.479c1.321-0.288,2.629-0.691,3.908-1.205c2.553-1.026,4.969-2.539,7.043-4.548
			c-1.485,2.468-3.525,4.688-5.934,6.485c-1.205,0.896-2.492,1.711-3.854,2.412c-1.342,0.681-2.649,1.263-4.244,1.722
			c0.689,6.036,1.855,14.982,1.855,14.982c1.149,0,2.562-0.209,3.859-0.49c1.321-0.287,2.636-0.694,3.908-1.207
			c2.554-1.027,4.97-2.543,7.043-4.545c-1.485,2.464-3.524,4.688-5.931,6.488c-1.208,0.896-2.494,1.711-3.856,2.409
			c-1.383,0.705-2.714,1.308-4.387,1.772c0,0,0.554,7.885,0.972,11.748C70.545,96.388,89.648,87.713,87.879,62.468z"/>
	</g>
</g>
</svg>